HIERARCHY
ROOT pelvis
{
  OFFSET 0 0 0
  CHANNELS 6 Xposition Yposition Zposition Zrotation Xrotation Yrotation
  JOINT pelvis_right_femur
  {
    OFFSET -11.43119 -3.542788 0.2090856
    CHANNELS 3 Zrotation Xrotation Yrotation
    JOINT right_femur_tibia
    {
      OFFSET -1.028693 -40.73281 5
      CHANNELS 3 Zrotation Xrotation Yrotation
      JOINT right_tibia_foot
      {
        OFFSET -0.5013517 -42.05707 -5
        CHANNELS 3 Zrotation Xrotation Yrotation
        End Site
        {
          OFFSET 0 -5 10
        }
      }
    }
  }
  JOINT pelvis_left_femur
  {
    OFFSET 11.43119 -3.542788 0.2090856
    CHANNELS 3 Zrotation Xrotation Yrotation
    JOINT left_femur_tibia
    {
      OFFSET 1.028693 -40.73281 5
      CHANNELS 3 Zrotation Xrotation Yrotation
      JOINT left_tibia_foot
      {
        OFFSET 0.3200228 -42.98253 -5
        CHANNELS 3 Zrotation Xrotation Yrotation
        End Site
        {
          OFFSET 0 -5 10
        }
      }
    }
  }
  JOINT pelvis_spine1
  {
    OFFSET 0 8.64413 -3.209807
    CHANNELS 3 Zrotation Xrotation Yrotation
    JOINT spine1
    {
      OFFSET 0 29.53957 -1.762685
      CHANNELS 3 Zrotation Xrotation Yrotation
      JOINT spine2
      {
        OFFSET 0 16.36153 -0.1422377
        CHANNELS 3 Zrotation Xrotation Yrotation
        JOINT neck
        {
          OFFSET 0 11.60093 5
          CHANNELS 3 Zrotation Xrotation Yrotation
          End Site
          {
            OFFSET 0 20 0
          }
        }
      }
      JOINT right_manubrium
      {
        OFFSET -4.671311 15.89868 4
        CHANNELS 3 Zrotation Xrotation Yrotation
        JOINT right_clavicle
        {
          OFFSET -13.601 1.573642 -2.74176
          CHANNELS 3 Zrotation Xrotation Yrotation
          JOINT right_humerus
          {
            OFFSET -0.06331682 -27.72702 2.252146
            CHANNELS 3 Zrotation Xrotation Yrotation
            JOINT right_radius
            {
              OFFSET -0.5696302 -23.92083 0.4042105
              CHANNELS 3 Zrotation Xrotation Yrotation
              End Site
              {
                OFFSET 0 -15 0
              }
            }
          }
        }
      }
      JOINT left_manubrium
      {
        OFFSET 4.671311 15.89868 4
        CHANNELS 3 Zrotation Xrotation Yrotation
        JOINT left_clavicle
        {
          OFFSET 13.601 1.573642 -2.74176
          CHANNELS 3 Zrotation Xrotation Yrotation
          JOINT left_humerus
          {
            OFFSET 0.000209614 -29.01858 1.101395
            CHANNELS 3 Zrotation Xrotation Yrotation
            JOINT left_radius
            {
              OFFSET -0.2288314 -24.59216 1.790347
              CHANNELS 3 Zrotation Xrotation Yrotation
              End Site
              {
                OFFSET 0 -15 0
              }
            }
          }
        }
      }
    }
  }
}
MOTION
Frames: 17
Frame Time: 0.0416666666667
-0.1039293 47.95101 0.07075443 -3.557572 -17.04522 -1.016294 -58.50746 -62.68614 -58.50493 -180 85.21867 -180 5.330986 5.588186 -0.8831375 72.95418 -52.50265 68.4942 -180 79.40665 -180 -4.939708 2.927424 -19.06198 -1.021502 19.78823 0.6270072 7.473896 13.92219 -10.34494 -8.741122 6.531321 7.096473 10.624 -32.09434 7.888284 22.36244 -7.041113 20.83944 -58.91616 -35.20518 11.81235 0 -66.22288 0 11.23491 -10.57115 19.62427 -27.16915 -30.03355 -3.896514 58.85819 -20.96555 -23.40551 0 -76.09484 0 -13.06612 -3.372804 -4.599385
-0.08297427 47.98891 0.09795521 -3.651106 -17.11126 -0.9554716 -58.2638 -62.50091 -58.34786 -180 85.2408 -180 5.316866 5.570084 -0.8498672 72.87428 -52.56313 68.2978 -180 79.40343 -180 -4.932583 2.926202 -19.05435 -0.8683087 19.67275 0.732038 7.207005 14.05788 -10.16666 -9.114016 6.530554 6.957491 10.53327 -32.28219 7.530053 22.13067 -7.097357 20.85567 -59.16468 -35.04273 11.71384 0 -65.51105 0 9.794823 -12.30328 17.48684 -27.20519 -30.01983 -3.555995 58.81863 -21.19672 -23.52818 0 -76.34597 0 -13.37297 -0.7752921 -7.892927
-0.06244986 48.0221 0.1026878 -3.842028 -17.19922 -0.8787155 -57.89315 -62.24415 -58.17757 -180 85.31169 -180 5.318554 5.552842 -0.8364771 72.90066 -52.6648 68.11106 -180 79.39589 -180 -4.912618 2.924384 -19.06208 -0.609872 19.59336 0.7433755 6.977709 14.16418 -10.07725 -9.565362 6.645401 6.827435 10.43262 -32.44294 7.112788 21.73824 -6.990171 21.11608 -59.19044 -35.2711 12.16729 0 -65.35272 0 8.400962 -13.98885 15.59755 -27.13023 -29.8202 -3.443493 58.71793 -21.64296 -23.99941 0 -76.42296 0 -13.66239 2.032284 -11.13426
0.06907449 48.15424 0.1315034 -4.143883 -17.26847 -0.7172328 -57.45313 -61.79708 -57.95399 -180 85.46387 -180 5.308384 5.546126 -0.7816448 72.80371 -52.86043 67.84445 -180 79.41064 -180 -4.893477 2.910351 -19.03871 -0.1186996 19.49512 0.5783091 6.863112 14.32265 -10.07186 -10.049 6.801423 6.709207 10.32697 -32.59888 6.675135 21.33746 -6.716617 21.58741 -59.01283 -35.73626 13.01717 0 -65.44777 0 7.056549 -15.53945 13.90525 -27.10737 -29.43792 -3.571723 58.39975 -22.21067 -24.75674 0 -76.43269 0 -13.84782 4.73599 -14.17624
0.08095543 48.18806 0.134517 -4.252971 -17.30665 -0.6404021 -57.24182 -61.61556 -57.86587 -180 85.53071 -180 5.31089 5.528039 -0.7656108 72.80535 -52.92243 67.75706 -180 79.42929 -180 -4.878578 2.908013 -19.04785 -0.005710347 19.37758 0.6125433 6.849912 14.33488 -10.01334 -10.51043 7.046486 6.571661 10.21482 -32.61467 6.183631 21.09002 -6.385443 22.18433 -58.60487 -36.37248 14.04594 0 -65.65783 0 5.683458 -16.9341 12.37601 -26.99844 -29.08188 -3.778106 57.96278 -22.84929 -25.51525 0 -76.4424 0 -13.8623 7.131713 -16.92089
0.0817888 48.18376 0.1572033 -4.189052 -17.28672 -0.6290721 -57.38915 -61.63948 -57.94165 -180 85.47264 -180 5.317477 5.543849 -0.7643926 72.74712 -52.89605 67.77338 -180 79.43732 -180 -4.876733 2.929805 -19.06838 -0.1882077 19.23038 0.8298106 6.934114 14.23186 -9.91718 -10.83555 7.297859 6.400443 10.15918 -32.51468 5.669741 20.97948 -6.05973 22.75011 -58.04574 -37.03532 15.09685 0 -65.83615 0 4.275755 -18.14336 10.98956 -26.84968 -28.78746 -3.858578 57.52231 -23.31149 -26.07347 0 -76.19779 0 -13.7182 9.207976 -19.31455
-0.04051661 48.07659 0.1327539 -3.919941 -17.24625 -0.6827906 -57.74454 -61.93879 -58.11148 -180 85.35596 -180 5.343628 5.5307 -0.8339747 72.77156 -52.768 67.95535 -180 79.45602 -180 -4.879535 2.966232 -19.11608 -0.7488516 19.10746 1.314303 7.051088 14.03886 -9.713881 -10.99949 7.548882 6.18595 10.18296 -32.31567 5.138167 20.93191 -5.810503 23.32194 -57.48019 -37.64167 16.05675 0 -65.74849 0 2.84797 -19.14933 9.735043 -26.6296 -28.62041 -3.891249 57.1414 -23.7092 -26.4288 0 -75.85908 0 -13.4731 10.9232 -21.39037
-0.02902995 48.05917 0.1231593 -3.784865 -17.19841 -0.652729 -58.00028 -62.062 -58.18413 -180 85.31792 -180 5.361047 5.526902 -0.8913588 72.68053 -52.74427 68.06433 -180 79.49088 -180 -4.879572 3.000651 -19.15171 -1.050243 18.96515 1.651774 7.241064 13.90979 -9.564908 -10.98281 7.763576 5.945916 10.33952 -32.14489 4.629788 20.8816 -5.651709 23.90772 -57.02556 -38.10495 16.83085 0 -65.32191 0 1.408587 -19.9726 8.600654 -26.53005 -28.43201 -3.960352 56.69722 -24.01669 -26.76916 0 -75.49879 0 -13.17398 12.3143 -23.1924
-0.01920313 48.06333 0.1075824 -3.72754 -17.17499 -0.5594084 -58.08694 -62.08413 -58.16459 -180 85.31414 -180 5.390537 5.520501 -0.9572349 72.64506 -52.74595 68.17369 -180 79.53813 -180 -4.868323 3.034267 -19.20704 -1.262116 18.86063 1.910505 7.458252 13.78671 -9.471395 -10.86788 7.923366 5.701488 10.59482 -32.01399 4.136816 20.83273 -5.613481 24.4586 -56.73191 -38.37354 17.35686 0 -64.57153 0 0.0004013469 -20.63692 7.571338 -26.50709 -28.26839 -4.096651 56.24032 -24.2794 -27.0474 0 -75.12877 0 -12.85132 13.45199 -24.75728
-0.004537376 48.06283 0.1048427 -3.698493 -17.16311 -0.4535447 -58.13722 -62.07666 -58.1148 -180 85.29746 -180 5.415648 5.503939 -1.023291 72.62716 -52.75699 68.2693 -180 79.56226 -180 -4.84008 3.068776 -19.28175 -1.430061 18.81168 2.107949 7.708297 13.68033 -9.387713 -10.71416 7.978774 5.470571 10.92298 -31.94328 3.645781 20.81077 -5.73768 24.90796 -56.78 -38.35304 17.45181 0 -63.42615 0 -1.305502 -21.14413 6.604006 -26.51477 -28.11733 -4.249803 55.77044 -24.4845 -27.28525 0 -74.84925 0 -12.52215 14.36175 -26.12044
0.008692761 48.06313 0.1008398 -3.6828 -17.19431 -0.3352015 -58.12329 -62.03548 -58.00531 -180 85.27276 -180 5.449589 5.484528 -1.107 72.58043 -52.75946 68.30909 -180 79.58833 -180 -4.800289 3.115966 -19.3816 -1.567147 18.72536 2.210925 7.940381 13.59924 -9.391048 -10.56584 8.055508 5.256841 11.28611 -31.84469 3.134124 20.72449 -5.990602 25.27455 -56.97118 -38.3031 17.44635 0 -62.69088 0 -2.409956 -21.70122 5.786025 -26.51775 -27.99073 -4.374974 55.39455 -24.55642 -27.39353 0 -74.54763 0 -12.18511 15.10135 -27.29651
0.01610061 48.06646 0.09946465 -3.656587 -17.25065 -0.2106197 -58.06491 -61.96485 -57.85489 -180 85.2437 -180 5.477673 5.455973 -1.18807 72.48469 -52.75064 68.29539 -180 79.62177 -180 -4.748048 3.156832 -19.48909 -1.721989 18.64998 2.265468 8.141821 13.54369 -9.444765 -10.41195 8.110568 5.030516 11.67644 -31.73637 2.569642 20.53666 -6.279838 25.54875 -57.25103 -38.14237 17.41189 0 -62.28531 0 -3.319602 -22.32194 5.093442 -26.49511 -27.90495 -4.489799 55.09134 -24.5173 -27.37749 0 -74.2588 0 -11.85733 15.70506 -28.31518
0.01321378 48.07989 0.0943283 -3.630807 -17.30495 -0.07592392 -57.9745 -61.88406 -57.69421 -180 85.24975 -180 5.508866 5.414518 -1.280833 72.37712 -52.73326 68.27992 -180 79.68048 -180 -4.703984 3.193237 -19.59299 -1.906832 18.60132 2.290525 8.358043 13.50361 -9.517726 -10.25651 8.117922 4.741271 12.0782 -31.62356 1.88138 20.31495 -6.534929 25.72804 -57.59956 -37.74742 17.29695 0 -61.98257 0 -4.076672 -22.96179 4.486073 -26.47636 -27.8523 -4.60724 54.81014 -24.41959 -27.2951 0 -74.01955 0 -11.53273 16.18379 -29.18415
0.00842807 48.10212 0.08423092 -3.614761 -17.36636 0.03808922 -57.81497 -61.81546 -57.46339 -180 85.26468 -180 5.536252 5.387836 -1.367768 72.25739 -52.70313 68.231 -180 79.74758 -180 -4.653666 3.227237 -19.6953 -2.092404 18.54745 2.274423 8.611426 13.4955 -9.641192 -10.15379 8.147267 4.373365 12.44941 -31.45877 1.014493 20.1652 -6.831805 25.78016 -58.01142 -37.17923 17.02602 0 -61.86618 0 -4.711451 -23.65973 3.959449 -26.4837 -27.83259 -4.685106 54.55 -24.26181 -27.16365 0 -73.83593 0 -11.23997 16.57768 -29.94515
0.01090204 48.11982 0.06204892 -3.574356 -17.43613 0.134639 -57.68563 -61.7711 -57.22862 -180 85.28954 -180 5.547572 5.392985 -1.448617 72.10503 -52.67459 68.17635 -180 79.79809 -180 -4.616482 3.268641 -19.74103 -2.325629 18.53176 2.201579 8.898606 13.49307 -9.814086 -10.09226 8.231832 3.895307 12.7992 -31.20873 -0.08122043 20.10076 -7.232779 25.684 -58.55592 -36.44085 16.52794 0 -61.84612 0 -5.232071 -24.38222 3.502762 -26.49796 -27.87391 -4.668848 54.36535 -24.06378 -26.98875 0 -73.73637 0 -10.98057 16.88589 -30.60034
0.02348305 48.12605 0.05096904 -3.54983 -17.52535 0.1710402 -57.5184 -61.75539 -56.96468 -180 85.29491 -180 5.555767 5.420603 -1.513132 71.96598 -52.60313 68.10579 -180 79.81551 -180 -4.589738 3.299435 -19.75846 -2.536444 18.53911 2.080424 9.173702 13.50195 -10.00435 -10.0362 8.410115 3.278987 13.13168 -30.83999 -1.430351 20.02688 -7.807484 25.49711 -59.3075 -35.52228 15.76734 0 -61.77101 0 -5.61698 -25.09727 3.102745 -26.48989 -27.96199 -4.545046 54.2682 -23.84394 -26.79885 0 -73.72133 0 -10.76221 17.13174 -31.16779
0.03574899 48.12293 0.03223057 -3.53081 -17.63659 0.169946 -57.30203 -61.74707 -56.6508 -180 85.31493 -180 5.546736 5.426571 -1.553548 71.82786 -52.50213 68.01576 -180 79.83069 -180 -4.564823 3.312057 -19.79848 -2.740358 18.60728 1.931506 9.423844 13.51573 -10.22406 -9.944752 8.685531 2.488178 13.47299 -30.41325 -3.048187 19.87045 -8.572749 25.26793 -60.27147 -34.46224 14.8114 0 -61.55827 0 -5.865632 -25.78788 2.741082 -26.42529 -28.10067 -4.352221 54.27466 -23.62285 -26.62376 0 -73.80034 0 -10.60805 17.31735 -31.66216
